<?xml version="1.0" standalone="no"?>
<!DOCTYPE svg PUBLIC "-//W3C//DTD SVG 20010904//EN"
 "http://www.w3.org/TR/2001/REC-SVG-20010904/DTD/svg10.dtd">
<svg version="1.0" xmlns="http://www.w3.org/2000/svg"
 width="97.000000pt" height="27.000000pt" viewBox="0 0 97.000000 27.000000"
 preserveAspectRatio="xMidYMid meet">

<g transform="translate(0.000000,27.000000) scale(0.100000,-0.100000)"
fill="#000000" stroke="none">
<path d="M288 209 c-29 -30 -70 -76 -92 -102 -48 -60 -95 -85 -130 -69 -34 15
-42 52 -21 95 22 47 65 66 100 43 27 -18 35 -6 9 14 -47 40 -131 -12 -141 -88
-5 -34 -2 -44 20 -66 43 -43 107 -29 160 34 17 19 35 30 52 30 25 0 26 -1 19
-45 -7 -50 4 -57 43 -30 19 13 22 13 27 0 7 -20 36 -19 64 1 21 15 25 15 42
-1 39 -36 104 -2 183 96 l28 34 -7 -35 c-3 -21 -21 -51 -42 -72 -20 -21 -31
-38 -24 -38 6 0 19 11 28 25 21 32 34 32 34 0 0 -19 5 -25 23 -25 13 0 28 5
35 12 8 8 15 8 26 -2 26 -21 62 -3 119 60 l55 61 -9 -46 c-11 -61 -17 -68 -45
-61 -13 4 -24 2 -24 -4 0 -18 47 -22 76 -7 16 8 38 26 49 38 l20 24 -23 -19
c-31 -27 -38 -14 -24 51 16 75 2 86 -36 31 -45 -64 -98 -118 -116 -118 -22 0
-21 4 24 82 31 54 36 69 23 66 -10 -2 -27 -20 -39 -41 -29 -52 -79 -107 -98
-107 -30 0 -18 47 24 96 23 25 39 49 36 52 -3 3 -15 -7 -27 -21 -26 -34 -38
-34 -31 -2 7 41 -21 30 -64 -22 -63 -78 -93 -103 -126 -103 -25 0 -29 4 -26
22 2 16 12 24 37 29 59 12 101 78 62 98 -33 18 -64 -3 -109 -72 -38 -59 -74
-88 -89 -73 -3 3 22 53 56 112 33 58 61 108 61 110 0 2 -6 4 -13 4 -7 0 -32
-33 -54 -72 -58 -102 -100 -158 -119 -158 -9 0 -14 6 -12 12 31 85 69 211 64
215 -3 4 -30 -18 -58 -48z m15 -36 c-19 -59 -25 -66 -53 -61 -22 3 -21 5 19
56 23 28 43 52 46 52 2 0 -3 -21 -12 -47z m242 -43 c-7 -21 -50 -48 -61 -37
-7 7 10 40 32 62 21 21 39 5 29 -25z"/>
<path d="M825 229 c-10 -15 1 -23 20 -15 9 3 13 10 10 16 -8 13 -22 13 -30 -1z"/>
</g>
</svg>
